<?xml version="1.0" standalone="no"?><!DOCTYPE svg PUBLIC "-//W3C//DTD SVG 1.1//EN" "http://www.w3.org/Graphics/SVG/1.1/DTD/svg11.dtd"><svg t="1670155609310" class="icon" viewBox="0 0 1024 1024" version="1.1" xmlns="http://www.w3.org/2000/svg" p-id="1008" xmlns:xlink="http://www.w3.org/1999/xlink" width="200" height="200"><path d="M324.266667 853.333333h68.266666V392.533333h-68.266666z" fill="#FF5500" p-id="1009"></path><path d="M403.3536 199.424a110.762667 110.762667 0 0 1 144.964267-72.516267 174.045867 174.045867 0 0 1 113.117866 168.8576L658.773333 375.466667h165.768534a85.333333 85.333333 0 0 1 84.650666 96.256l-46.250666 358.4a85.333333 85.333333 0 0 1-84.650667 74.410666H187.733333a85.333333 85.333333 0 0 1-85.333333-85.333333V460.8a85.333333 85.333333 0 0 1 85.333333-85.333333h125.525334a51.2 51.2 0 0 0 49.117866-36.7616z m121.105067-8.5504a42.496 42.496 0 0 0-55.620267 27.818667l-40.96 139.281066A119.466667 119.466667 0 0 1 313.258667 443.733333H187.733333a17.066667 17.066667 0 0 0-17.066666 17.066667v358.4a17.066667 17.066667 0 0 0 17.066666 17.066667h590.574934a17.066667 17.066667 0 0 0 16.913066-14.882134l46.250667-358.4A17.066667 17.066667 0 0 0 824.541867 443.733333H658.773333a68.266667 68.266667 0 0 1-68.232533-70.536533l2.6624-79.701333a105.7792 105.7792 0 0 0-68.744533-102.621867z" fill="#262626" p-id="1010"></path></svg>